<svg xmlns="http://www.w3.org/2000/svg" xmlns:xlink="http://www.w3.org/1999/xlink" viewBox="0 0 420.41 368.02"><defs><style>.cls-1{isolation:isolate;}.cls-2{fill:url(#linear-gradient);}.cls-17,.cls-3{fill:#fff;mix-blend-mode:overlay;}.cls-16,.cls-4,.cls-5,.cls-8{mix-blend-mode:multiply;}.cls-4{fill:url(#linear-gradient-2);}.cls-5{fill:url(#linear-gradient-3);}.cls-6{fill:url(#linear-gradient-4);}.cls-7{fill:url(#linear-gradient-5);}.cls-8{fill:url(#linear-gradient-6);}.cls-9{fill:url(#linear-gradient-7);}.cls-10{fill:url(#linear-gradient-8);}.cls-11{fill:url(#linear-gradient-9);}.cls-12{fill:url(#linear-gradient-10);}.cls-13{fill:url(#linear-gradient-11);}.cls-14{fill:url(#linear-gradient-12);}.cls-15{fill:url(#linear-gradient-13);}.cls-16{fill:url(#linear-gradient-14);}.cls-17{opacity:0.3;}</style><linearGradient id="linear-gradient" x1="159.57" y1="66.51" x2="152.5" y2="214.26" gradientUnits="userSpaceOnUse"><stop offset="0" stop-color="#ffe600"/><stop offset="1" stop-color="#f80"/></linearGradient><linearGradient id="linear-gradient-2" x1="104.1" y1="138.93" x2="188.58" y2="258.77" gradientUnits="userSpaceOnUse"><stop offset="0" stop-color="#f7f6f2"/><stop offset="1" stop-color="#edcca8"/></linearGradient><linearGradient id="linear-gradient-3" x1="186.73" y1="236.3" x2="185.03" y2="271.64" gradientUnits="userSpaceOnUse"><stop offset="0" stop-color="#edbe95"/><stop offset="1" stop-color="#ffb700"/></linearGradient><linearGradient id="linear-gradient-4" x1="-16.59" y1="212.53" x2="128.41" y2="203.49" xlink:href="#linear-gradient"/><linearGradient id="linear-gradient-5" x1="147.12" y1="277.06" x2="-70.37" y2="92.58" gradientUnits="userSpaceOnUse"><stop offset="0" stop-color="#ed6f00"/><stop offset="1" stop-color="#ffb700"/></linearGradient><linearGradient id="linear-gradient-6" x1="112.62" y1="211.65" x2="177.45" y2="303.61" gradientUnits="userSpaceOnUse"><stop offset="0" stop-color="#f7f6f2"/><stop offset="1" stop-color="#d4af87"/></linearGradient><linearGradient id="linear-gradient-7" x1="424.79" y1="59.13" x2="375.28" y2="2.55" xlink:href="#linear-gradient-5"/><linearGradient id="linear-gradient-8" x1="353.87" y1="-14.04" x2="378.62" y2="74.96" xlink:href="#linear-gradient"/><linearGradient id="linear-gradient-9" x1="266.17" y1="80.11" x2="378.77" y2="80.11" gradientUnits="userSpaceOnUse"><stop offset="0" stop-color="#fff"/><stop offset="1" stop-color="#c1d6fa"/></linearGradient><linearGradient id="linear-gradient-10" x1="252.55" y1="22.77" x2="293.52" y2="167.17" xlink:href="#linear-gradient"/><linearGradient id="linear-gradient-11" x1="165.13" y1="136.63" x2="309.55" y2="136.63" xlink:href="#linear-gradient-9"/><linearGradient id="linear-gradient-12" x1="153.86" y1="56.05" x2="223.47" y2="262.48" xlink:href="#linear-gradient"/><linearGradient id="linear-gradient-13" x1="71.15" y1="188.85" x2="244.22" y2="188.85" xlink:href="#linear-gradient-9"/><linearGradient id="linear-gradient-14" x1="250.23" y1="82.55" x2="289.13" y2="269.98" gradientUnits="userSpaceOnUse"><stop offset="0" stop-color="#f7f6f2"/><stop offset="1" stop-color="#eddebb"/></linearGradient></defs><g class="cls-1"><g id="Layer_1" data-name="Layer 1"><polygon class="cls-2" points="264.86 237.79 270.42 300.5 232.79 341.53 161.12 326.06 83.98 255.99 35.93 161.31 36.68 84.03 81.71 53.38 150.46 75.77 151.45 76.72 151.45 76.76 144.19 79.17 102.51 93.03 71.15 115.95 71.48 171.07 105.48 237.37 159.47 286.69 210.25 298.52 264.86 237.79"/><polygon class="cls-3" points="37.5 163.86 38.25 86.58 83.28 55.93 149.36 77.46 151.45 76.76 151.45 76.72 150.46 75.77 81.71 53.38 36.68 84.03 35.93 161.31 37.5 163.86"/><polygon class="cls-4" points="232.79 341.53 270.42 300.5 264.86 237.79 210.25 298.52 159.47 286.69 105.48 237.37 116.2 285.26 161.12 326.06 232.79 341.53"/><polygon class="cls-5" points="107.05 239.92 158.63 288.42 212.56 302.47 266.47 256.02 264.86 237.79 210.25 298.52 159.47 286.69 105.96 237.81 107.05 239.92"/><polygon class="cls-6" points="270.42 300.5 270.04 310.08 230.48 353.64 154.8 337.75 73.37 263.96 22.87 164.04 24.14 82.61 71.95 50.5 81.71 53.38 36.68 84.03 35.93 161.31 83.98 255.99 161.12 326.06 232.79 341.53 270.42 300.5"/><polygon class="cls-7" points="230.48 353.64 205.68 368.02 130.14 352.79 49.46 280.19 0 181.25 2.07 100.25 24.14 82.61 22.87 164.04 73.37 263.96 154.8 337.75 230.48 353.64"/><polygon class="cls-8" points="270.42 300.5 232.79 341.53 161.12 326.06 116.29 285.34 116.29 285.34 111.73 298.72 94.09 320.35 130.14 352.79 205.68 368.02 230.48 353.64 270.04 310.08 270.42 300.5"/><polygon class="cls-9" points="417.96 35.88 420.41 50.27 414.23 56.3 401.6 51.54 387.4 37.63 377.27 19.99 375.1 5.66 381.6 0 394.15 5.04 407.96 18.67 417.96 35.88"/><polygon class="cls-10" points="420.41 50.27 378.82 100.43 378.77 100.43 358.12 93.79 337 73.32 322.24 47.2 319.6 25.79 329.78 17.3 381.6 0 375.1 5.66 377.27 19.99 387.4 37.63 401.6 51.54 414.23 56.3 420.41 50.27"/><polygon class="cls-11" points="378.77 100.43 343.55 142.92 315.97 134.71 288.05 108.03 268.96 73.51 266.17 45.17 280.27 33.76 329.78 17.3 319.6 25.79 322.24 47.2 337 73.32 358.12 93.79 378.77 100.43"/><polygon class="cls-12" points="343.55 142.92 309.55 183.9 275.04 174.42 240.48 141.74 217.28 99.02 214.73 63.84 232.93 49.56 280.27 33.76 266.17 45.17 268.96 73.51 288.05 108.03 315.97 134.71 343.55 142.92"/><polygon class="cls-13" points="309.55 183.9 276.55 223.69 235.38 212.94 194.22 174.51 167.2 123.78 165.13 81.81 187.62 64.69 232.93 49.56 214.73 63.84 217.28 99.02 240.48 141.74 275.04 174.42 309.55 183.9"/><polygon class="cls-14" points="276.55 223.69 244.22 262.68 196.86 250.38 149.24 206.34 118.63 147.78 117.31 99.21 144.19 79.17 187.62 64.69 165.13 81.81 167.2 123.78 194.22 174.51 235.38 212.94 276.55 223.69"/><polygon class="cls-15" points="244.22 262.68 210.25 298.52 159.47 286.69 105.48 237.37 71.48 171.07 71.15 115.95 102.51 93.03 144.19 79.17 117.31 99.21 118.63 147.78 149.24 206.34 196.86 250.38 244.22 262.68"/><polygon class="cls-16" points="387.4 37.63 105.48 237.37 159.47 286.69 210.25 298.52 244.22 262.68 420.41 50.27 414.23 56.3 401.6 51.54 387.4 37.63"/><polygon class="cls-3" points="102.51 93.03 381.6 0 380.15 1.26 97.88 96.41 102.51 93.03"/><polygon class="cls-17" points="71.15 115.95 375.1 5.66 375.31 7.08 71.15 121.91 71.15 115.95"/></g></g></svg>