<svg xmlns="http://www.w3.org/2000/svg" xmlns:xlink="http://www.w3.org/1999/xlink" viewBox="0 0 403.21 489.92"><defs><style>.cls-1{isolation:isolate;}.cls-2{fill:url(#linear-gradient);}.cls-3{fill:url(#linear-gradient-2);}.cls-4{fill:url(#linear-gradient-3);}.cls-13,.cls-5{mix-blend-mode:multiply;}.cls-5{fill:url(#linear-gradient-4);}.cls-6{fill:url(#linear-gradient-5);}.cls-7{fill:url(#linear-gradient-6);}.cls-8{fill:url(#linear-gradient-7);}.cls-9{fill:url(#linear-gradient-8);}.cls-10{fill:url(#linear-gradient-9);}.cls-11{fill:url(#linear-gradient-10);}.cls-12{fill:url(#linear-gradient-11);}.cls-13{fill:url(#linear-gradient-12);}.cls-14,.cls-15{fill:#fff;mix-blend-mode:overlay;}.cls-15{opacity:0.3;}</style><linearGradient id="linear-gradient" x1="158.83" y1="437.72" x2="277.78" y2="234.31" gradientUnits="userSpaceOnUse"><stop offset="0" stop-color="#ed6f00"/><stop offset="1" stop-color="#ffb700"/></linearGradient><linearGradient id="linear-gradient-2" x1="277.8" y1="250.69" x2="125.06" y2="432.28" gradientUnits="userSpaceOnUse"><stop offset="0" stop-color="#ffe600"/><stop offset="1" stop-color="#f57200"/></linearGradient><linearGradient id="linear-gradient-3" x1="287.01" y1="110.21" x2="169.47" y2="376.26" gradientUnits="userSpaceOnUse"><stop offset="0" stop-color="#ffe600"/><stop offset="1" stop-color="#f80"/></linearGradient><linearGradient id="linear-gradient-4" x1="65.63" y1="242.95" x2="143.59" y2="353.54" gradientUnits="userSpaceOnUse"><stop offset="0" stop-color="#f7f6f2"/><stop offset="1" stop-color="#edcca8"/></linearGradient><linearGradient id="linear-gradient-5" x1="272.42" y1="212.42" x2="127.43" y2="374.31" gradientUnits="userSpaceOnUse"><stop offset="0" stop-color="#fff"/><stop offset="1" stop-color="#c1d6fa"/></linearGradient><linearGradient id="linear-gradient-6" x1="77.21" y1="349.92" x2="226.42" y2="180.29" xlink:href="#linear-gradient"/><linearGradient id="linear-gradient-7" x1="182.95" y1="118.35" x2="88.64" y2="271.78" xlink:href="#linear-gradient-5"/><linearGradient id="linear-gradient-8" x1="63.53" y1="224.3" x2="129.7" y2="107.46" xlink:href="#linear-gradient"/><linearGradient id="linear-gradient-9" x1="106.36" y1="51.33" x2="39.49" y2="165.35" xlink:href="#linear-gradient-5"/><linearGradient id="linear-gradient-10" x1="24.25" y1="123.3" x2="68.59" y2="3.65" xlink:href="#linear-gradient"/><linearGradient id="linear-gradient-11" x1="42.42" y1="-0.02" x2="-31.48" y2="140.74" xlink:href="#linear-gradient-3"/><linearGradient id="linear-gradient-12" x1="28.28" y1="55.45" x2="98" y2="391.38" gradientUnits="userSpaceOnUse"><stop offset="0" stop-color="#f7f6f2"/><stop offset="1" stop-color="#eddebb"/></linearGradient></defs><g class="cls-1"><g id="Layer_1" data-name="Layer 1"><polygon class="cls-2" points="387.62 263.01 403.21 297.42 373.99 361.21 271.51 436.04 140.71 486.49 43.41 489.92 16.38 450.29 0 417.91 26.12 455.81 123.03 450.68 254.11 399.56 357.43 325.23 387.62 263.01"/><polygon class="cls-3" points="387.62 263.01 357.43 325.23 254.11 399.56 123.03 450.68 26.12 455.81 0 417.91 5.29 405.46 30.35 440.6 122.07 435.14 245.83 386.6 343.69 316.62 372.97 258.05 330.07 233 341.67 236.38 387.62 263.01"/><polygon class="cls-4" points="372.97 258.05 343.69 316.62 245.83 386.6 122.07 435.14 30.35 440.6 5.29 405.46 47.01 347.81 49.88 345.84 56.14 385.08 75.84 409.07 141.22 404.23 227.3 370.27 296 321.63 318.35 279.9 282.04 239.81 330.07 233 372.97 258.05"/><polygon class="cls-5" points="227.3 370.27 141.22 404.23 75.84 409.07 56.14 385.08 49.88 345.84 47.01 347.81 5.29 405.46 30.35 440.6 122.07 435.14 245.83 386.6 268.04 370.72 296 321.63 227.3 370.27"/><polygon class="cls-6" points="282.04 239.81 318.35 279.9 296 321.63 227.3 370.27 141.22 404.23 75.84 409.07 56.14 385.08 47.12 328.44 64.13 347.52 120.94 341.56 195.95 311.38 256.48 269.65 277.31 234.57 282.04 239.81"/><polygon class="cls-7" points="235.92 188.85 277.31 234.57 256.48 269.65 195.95 311.38 120.94 341.56 64.13 347.52 47.12 328.44 38.01 270.95 52.37 285.59 100.73 279.06 164.7 252.76 216.95 217.68 235.92 188.85"/><polygon class="cls-8" points="194.14 142.74 235.92 188.85 216.95 217.68 164.7 252.76 100.73 279.06 52.37 285.59 38.01 270.95 28.77 212.51 40.54 223.31 80.57 216.61 133.62 194.43 177.48 165.77 194.14 142.74"/><polygon class="cls-9" points="152.09 96.23 194.14 142.74 177.48 165.77 133.62 194.43 80.57 216.61 40.54 223.31 28.77 212.51 19.37 153.21 28.6 160.7 60.42 154.34 102.7 136.32 138.01 113.85 152.09 96.23"/><polygon class="cls-10" points="109.69 49.39 152.09 96.23 138.01 113.85 102.7 136.32 60.42 154.34 28.6 160.7 19.37 153.21 9.85 93.02 16.61 97.7 40.31 92.18 71.9 78.49 98.54 61.99 109.69 49.39"/><polygon class="cls-11" points="66.89 2.14 109.69 49.39 98.54 61.99 71.9 78.49 40.31 92.18 16.61 97.7 9.85 93.02 0.11 31.82 4.56 34.29 20.27 30.18 41.21 20.89 59.06 10.13 66.89 2.14"/><polygon class="cls-12" points="66.89 2.14 59.06 10.13 41.21 20.89 20.27 30.18 4.56 34.29 0.11 31.82 8.33 23.76 25.79 13.29 46.11 4.28 61.82 0 66.89 2.14"/><polygon class="cls-13" points="0.11 31.82 4.56 34.29 19.37 30.42 141.22 404.23 75.84 409.07 56.14 385.08 0.11 31.82"/><polygon class="cls-14" points="66.89 2.14 65.68 3.38 316.31 283.71 318.35 279.9 66.89 2.14"/><polygon class="cls-15" points="59.06 10.13 296 321.63 292.01 324.44 57.22 11.25 59.06 10.13"/><polygon class="cls-14" points="282.06 239.81 330.07 233 341.67 236.38 333.38 235.18 284.29 242.27 282.06 239.81"/><polygon class="cls-14" points="387.62 263.01 403.21 297.42 401.88 300.32 386.32 265.69 371.88 260.23 372.97 258.05 387.62 263.01"/></g></g></svg>