<svg xmlns="http://www.w3.org/2000/svg" xmlns:xlink="http://www.w3.org/1999/xlink" viewBox="0 0 347.11 328.66"><defs><style>.cls-1{isolation:isolate;}.cls-2{fill:url(#linear-gradient);}.cls-13,.cls-3,.cls-4{mix-blend-mode:multiply;}.cls-3{fill:url(#linear-gradient-2);}.cls-4{fill:url(#linear-gradient-3);}.cls-5{fill:url(#linear-gradient-4);}.cls-14,.cls-15,.cls-6{mix-blend-mode:overlay;}.cls-6{fill:url(#linear-gradient-5);}.cls-7{fill:url(#linear-gradient-6);}.cls-8{fill:url(#linear-gradient-7);}.cls-9{fill:url(#linear-gradient-8);}.cls-10{fill:url(#linear-gradient-9);}.cls-11{fill:url(#linear-gradient-10);}.cls-12{fill:url(#linear-gradient-11);}.cls-13{fill:#eddebb;}.cls-14,.cls-15{fill:#fff;}.cls-15{opacity:0.3;}</style><linearGradient id="linear-gradient" x1="896.31" y1="303.27" x2="1185.71" y2="213.58" gradientTransform="matrix(0.95, -0.32, 0.32, 0.95, -57.14, 613.63)" gradientUnits="userSpaceOnUse"><stop offset="0" stop-color="#ed6f00"/><stop offset="1" stop-color="#ffb700"/></linearGradient><linearGradient id="linear-gradient-2" x1="931.19" y1="313.51" x2="1121.47" y2="254.54" gradientTransform="matrix(0.95, -0.32, 0.32, 0.95, -785.32, 213.47)" gradientUnits="userSpaceOnUse"><stop offset="0" stop-color="#edbe95"/><stop offset="1" stop-color="#ffb700"/></linearGradient><linearGradient id="linear-gradient-3" x1="881.73" y1="256.21" x2="1171.13" y2="166.53" xlink:href="#linear-gradient-2"/><linearGradient id="linear-gradient-4" x1="1007.57" y1="135.43" x2="867.64" y2="369.2" gradientTransform="matrix(0.95, -0.32, 0.32, 0.95, -785.32, 213.47)" gradientUnits="userSpaceOnUse"><stop offset="0" stop-color="#ffe600"/><stop offset="1" stop-color="#f80"/></linearGradient><linearGradient id="linear-gradient-5" x1="997.02" y1="129.12" x2="857.09" y2="362.89" gradientTransform="matrix(0.95, -0.32, 0.32, 0.95, -785.32, 213.47)" gradientUnits="userSpaceOnUse"><stop offset="0" stop-color="#ffe2c9"/><stop offset="1" stop-color="#eaa87d"/></linearGradient><linearGradient id="linear-gradient-6" x1="1028.73" y1="326.06" x2="924.1" y2="240.94" gradientTransform="matrix(0.95, -0.32, 0.32, 0.95, -785.32, 213.47)" gradientUnits="userSpaceOnUse"><stop offset="0" stop-color="#d96314"/><stop offset="1" stop-color="#ba4a11"/></linearGradient><linearGradient id="linear-gradient-7" x1="920.76" y1="134.9" x2="856.4" y2="221.27" xlink:href="#linear-gradient-4"/><linearGradient id="linear-gradient-8" x1="905.21" y1="127.02" x2="839.51" y2="203.63" gradientTransform="matrix(0.95, -0.32, 0.32, 0.95, -785.32, 213.47)" gradientUnits="userSpaceOnUse"><stop offset="0" stop-color="#fff"/><stop offset="1" stop-color="#c1d6fa"/></linearGradient><linearGradient id="linear-gradient-9" x1="877.93" y1="109.56" x2="833.6" y2="188.27" xlink:href="#linear-gradient-4"/><linearGradient id="linear-gradient-10" x1="852.5" y1="107.14" x2="797.57" y2="163.3" xlink:href="#linear-gradient-8"/><linearGradient id="linear-gradient-11" x1="826.37" y1="89.54" x2="801.25" y2="141.83" xlink:href="#linear-gradient-4"/></defs><g class="cls-1"><g id="Layer_1" data-name="Layer 1"><path class="cls-2" d="M1037.35,411.75l37.94,61.32L1068.6,566l-45.14,91.44-68.25,61.29-70.09,10.09-46.73-49.75-1.53-96.89,49-105.49,78.81-66Zm1.08,93.36-26.6-40.21-48.88.65-52,44.11L878.27,579.3v65.08l30.65,34.91,47.68-5.77,47.19-42,30.93-63.16Z" transform="translate(-728.18 -400.15)"/><polygon class="cls-3" points="229.77 275.21 276.96 233.24 307.89 170.08 311.6 106.8 285.01 66.59 284.87 66.59 310.25 104.96 306.53 168.23 275.6 231.4 228.41 273.37 180.73 279.14 182.09 280.98 229.77 275.21"/><polygon class="cls-4" points="110.04 183.86 159.02 78.36 237.83 12.37 310.3 13.44 309.17 11.6 236.47 10.52 157.66 76.52 108.68 182.02 110.21 278.91 111.56 280.35 110.04 183.86"/><polygon class="cls-5" points="309.17 11.6 236.47 10.52 157.66 76.52 108.68 182.02 110.21 278.91 156.94 328.65 135.87 316.02 88.63 266.13 86.69 184.78 86.33 169.76 134.5 65.16 157.31 46.2 212.86 0 285.77 1.43 309.17 11.6"/><polygon class="cls-6" points="136.92 316.21 89.68 266.32 87.74 184.97 87.38 169.96 135.56 65.36 158.36 46.4 213.91 0.2 286.19 1.61 285.77 1.43 212.86 0 157.31 46.2 134.5 65.16 86.33 169.76 86.69 184.78 88.63 266.13 135.87 316.02 156.94 328.65 156 327.66 136.92 316.21"/><polygon class="cls-7" points="283.65 64.74 310.25 104.96 306.53 168.23 275.6 231.4 228.41 273.37 180.73 279.14 150.08 244.23 150.09 179.15 182.78 109.51 234.77 65.39 283.65 64.74"/><polygon class="cls-8" points="157.31 46.2 134.5 65.16 86.33 169.76 86.69 184.78 79.41 175.92 78.13 128.31 100.93 78.5 142.49 45.4 157.31 46.2"/><polygon class="cls-9" points="142.49 45.4 100.93 78.5 78.13 128.31 79.41 175.92 58.86 150.76 57.49 111.48 75.98 70.74 113.86 44.09 142.49 45.4"/><polygon class="cls-10" points="113.86 44.09 75.98 70.74 57.49 111.48 58.86 150.76 38.91 126.4 37.64 95.23 52.06 63.21 79.51 42.41 113.86 44.09"/><polygon class="cls-11" points="79.51 42.41 52.06 63.21 37.64 95.23 38.91 126.4 19.56 102.78 18.47 79.65 28.99 56.03 48.82 40.91 79.51 42.41"/><polygon class="cls-12" points="48.82 40.91 28.99 56.03 18.47 79.65 19.56 102.78 0.81 79.8 0 64.56 6.84 49.07 18.74 39.45 48.82 40.91"/><polygon class="cls-13" points="97.97 144.49 0 64.56 0.81 79.8 86.69 184.78 86.33 169.76 97.97 144.49"/><polygon class="cls-14" points="18.74 39.45 157.31 46.2 155.29 47.89 17.97 40.07 18.74 39.45"/><polygon class="cls-15" points="6.84 49.07 124.91 86 126.5 82.55 7.41 48.6 6.84 49.07"/></g></g></svg>